<svg xmlns="http://www.w3.org/2000/svg" viewBox="0 0 206 206"><defs><style>.cls-1{fill:#fff;}</style></defs><title>放大鏡</title><g id="圖層_2" data-name="圖層 2"><g id="圖層_1-2" data-name="圖層 1"><path class="cls-1" d="M199.46,206c-1.26-1.11-2.59-2.15-3.78-3.33Q172.33,179.35,149,156a19.49,19.49,0,0,1-1.59-2c-2.22,1.78-4.07,3.34-6,4.79a87.31,87.31,0,0,1-45,17.45A88.26,88.26,0,0,1,2.85,110.42c-1.18-4.59-1.65-9.35-2.47-14-.09-.53-.25-1-.38-1.56V81.75c.31-2.28.57-4.57.94-6.84A87.53,87.53,0,0,1,22.58,29.35,86.8,86.8,0,0,1,71.32,1.65C74.77,1,78.27.54,81.75,0H94.83c3.47.54,7,1,10.42,1.65A86.81,86.81,0,0,1,154,29.36,84.82,84.82,0,0,1,175.6,75.12c3.74,26.56-3.16,50.22-20.46,70.79-.22.26-.45.51-.66.78a4.68,4.68,0,0,1-.66.87,12.15,12.15,0,0,1,2.06,1.34q23.34,23.29,46.64,46.64c1.24,1.23,2.32,2.61,3.48,3.92v3.27L202.73,206ZM166.76,88.22C166.67,45,131.3,9.72,88.22,9.81S9.73,45.25,9.81,88.35s35.46,78.5,78.54,78.41S166.86,131.28,166.76,88.22Z"/><path class="cls-1" d="M96.86,83.39h2.42q18,0,36,0a6.94,6.94,0,0,1,2,13.61,9.56,9.56,0,0,1-2.62.26q-17.67,0-35.35,0H96.86v2.36q0,17.78,0,35.56a6.93,6.93,0,0,1-13.59,2.1,9.09,9.09,0,0,1-.28-2.61q0-17.48,0-34.94V97.27H80.67q-17.58,0-35.15,0c-4.52,0-7.54-2.84-7.5-7s3.06-6.84,7.5-6.84q17.48,0,34.94,0H83V81.13Q83,63,83,45a6.87,6.87,0,0,1,5.75-6.9,7,7,0,0,1,7.87,5,10,10,0,0,1,.24,2.62C96.87,58.14,96.86,70.6,96.86,83.39Z"/></g></g></svg>