<svg xmlns="http://www.w3.org/2000/svg" xmlns:xlink="http://www.w3.org/1999/xlink" viewBox="0 0 175.31 58.03"><defs><style>.cls-1{fill:#e60012;}.cls-2{fill:url(#linear-gradient);}.cls-3{fill:url(#linear-gradient-2);}.cls-4{fill:url(#linear-gradient-3);}.cls-5{fill:url(#linear-gradient-4);}.cls-6{fill:url(#linear-gradient-5);}</style><linearGradient id="linear-gradient" x1="138.71" y1="49.62" x2="162.73" y2="49.62" gradientUnits="userSpaceOnUse"><stop offset="0.25" stop-color="#a50082"/><stop offset="0.6" stop-color="#d6007f"/></linearGradient><linearGradient id="linear-gradient-2" x1="149.99" y1="44.89" x2="175.3" y2="44.89" gradientUnits="userSpaceOnUse"><stop offset="0.25" stop-color="#f6ab00"/><stop offset="0.6" stop-color="#e60012"/></linearGradient><linearGradient id="linear-gradient-3" x1="14.56" y1="45.56" x2="155.93" y2="45.56" gradientUnits="userSpaceOnUse"><stop offset="0.04" stop-color="#abcd03"/><stop offset="0.09" stop-color="#abcd03"/><stop offset="0.6" stop-color="#094"/></linearGradient><linearGradient id="linear-gradient-4" y1="38.25" x2="174.54" y2="38.25" gradientUnits="userSpaceOnUse"><stop offset="0.25" stop-color="#f6ab00"/><stop offset="0.59" stop-color="#e60012"/></linearGradient><linearGradient id="linear-gradient-5" x1="105.4" y1="32.39" x2="45.2" y2="32.39" gradientUnits="userSpaceOnUse"><stop offset="0" stop-color="#a50082"/><stop offset="0.25" stop-color="#1d2088"/><stop offset="0.5" stop-color="#00a0e9"/></linearGradient></defs><title>HK_LOGO</title><g id="圖層_2" data-name="圖層 2"><g id="AW"><path class="cls-1" d="M170,20a3.44,3.44,0,0,0,3.43-3.44V15.12h1.93V12.74H173a1.41,1.41,0,0,1-1-.66l-1.13-2.37h3.86V7.33h-4.45V4.4h4.45V2h-4.45V0h-2.38V2h-6.57V0h-2.39V2h-4.22V4.4h4.22V7.33h-4.22V9.71h3.63l-1.13,2.37a1.41,1.41,0,0,1-1,.66h-2.36v2.38h2.1a3.41,3.41,0,0,0-.17,1.06v5.26a3.45,3.45,0,0,0,3.44,3.44h15.54V22.5H159.1A1.06,1.06,0,0,1,158,21.44V20ZM167.81,4.4V7.33h-6.57V4.4Zm.33,5.31,1.45,3H159.45l1.45-3ZM158,16.88v-.7a1.06,1.06,0,0,1,1.06-1.06H170A1.06,1.06,0,0,1,171,16.18v.38A1.06,1.06,0,0,1,170,17.62H158v-.74Z"/><rect class="cls-1" x="150.18" width="2.38" height="4.4"/><rect class="cls-1" x="150.18" y="7.33" width="2.38" height="5.44"/><rect class="cls-1" x="150.18" y="15.7" width="2.38" height="9.18"/><path class="cls-1" d="M142.16,12.08,140.22,8h4.59V5.63H133.56V2.38H143.8V0H121.06V2.38h10.12V5.63H119.94V8h4.81l-1.94,4.06a1.41,1.41,0,0,1-1,.66h-3v2.38h3a3.41,3.41,0,0,0-.17,1.06v5.26a3.45,3.45,0,0,0,3.44,3.44h14.63a3.45,3.45,0,0,0,3.44-3.44V16.18a3.48,3.48,0,0,0-.18-1.07h3.26V12.74h-3A1.41,1.41,0,0,1,142.16,12.08ZM137.58,8l2.26,4.73h-6.28V8Zm-6.4,0v4.72h-6.05L127.39,8Zm9.56,13.42a1.06,1.06,0,0,1-1.05,1.06H125.06A1.07,1.07,0,0,1,124,21.44V20h16.74ZM124,17.62V16.18a1.07,1.07,0,0,1,1.06-1.06h14.63a1.06,1.06,0,0,1,1.05,1.06v1.44Z"/><g id="_群組_" data-name="&lt;群組&gt;"><path class="cls-2" d="M156.36,47.21c-2.13-1.8-3.14-2.43-5.42-2.43s-4.58,1.22-6.44,2.4a9.31,9.31,0,0,1-3,1.39c-.83.17-2.14.23-2.79-.71,1.22,3.25,3.85,3.09,6.43,1.8s5.5-5.16,9.79-2.21c-2-1.09-4.43-.58-7.56,1.91-3.4,2.7-5.27,2.3-6.22,1.78,2.82,2.62,6.84-1,9.64-2.15a8,8,0,0,1,5.27-.07c1.71.5,4.31,1.46,6.67-.42A6.52,6.52,0,0,1,156.36,47.21Zm-3.14,3.71a6.75,6.75,0,0,0-2.55.55c1.38-1.09,2.42-1.83,4.08-1.91-4.24-1.72-6.88,4.56-11.25,2.92,2.55,1.81,4.61.79,6.14,0a9.21,9.21,0,0,1,2.51-.51,6.76,6.76,0,0,1-4.34,2.3c2.74.77,4.6-.74,6.29-2.1,1.11-.89,1.88-1.9,3.63-1.8h.51l-.24-.07A5.34,5.34,0,0,0,153.22,50.92Z"/><path class="cls-3" d="M170.4,47a4,4,0,0,0-2.23-.34,4.92,4.92,0,0,1,2.63-.31c-4.64-2.23-6.88,4.76-12.24,4.06,2.33,1.18,5,.23,6.93-1.28,2.41-1.89,3.53,1,5.61-.57-.75.25-1.36-.24-2-.64s-1.35-.64-1.95-.18c1.44-1.46,3.45,1.31,5.11-.57A2.32,2.32,0,0,1,170.4,47Zm4.24-5.82c.07.74-.58,1-1.14,1.11a6.17,6.17,0,0,1-4-.83c1.93-1.24-2.16-3-3.79-2.15,2.2.12,1.61,1.49-.38,1.56-1.55.06-3.7-.55-4.6-2.12a3.2,3.2,0,0,0,2.44,3.09c-1.45.46-5.93,0-7.32-2.45.32,2.88,3.43,4.88,5.81,4.72-1.8,1.31-3.6.59-5.67-.24s-3.86-1.91-6-.34c2.77-.72,4.6,1.07,6.48,2.58s3.13,2.31,5.45,2c2.73-.37,4.55-2.94,7.71-2.94,1.51,0,2.3.86,3.27.86a1.63,1.63,0,0,0,1.21-.51c-1.19.4-1.64-.5-1-.39a1.9,1.9,0,0,0,2.12-1.46A2.85,2.85,0,0,0,174.64,41.22Zm-7.07,2.59a.65.65,0,1,1,0-1.3.65.65,0,1,1,0,1.3Z"/><path class="cls-4" d="M14.56,36.17c.36,10.52,9.38,26.3,22.41,20.69C41.41,55,45.22,49.47,47.5,48c5.6-3.53,13.12,2.59,18.81,5.49a22.16,22.16,0,0,0,20.91-.1c7.49-3.88,14.75-8.68,22.11-12.67a49.83,49.83,0,0,1,8.27-3.62c9.74-3.35,18.71-3.47,28.26.94.4.14,1.66.6,2.92,1.2,2.52,1.21,6.53,3.2,7.15,3.43a13.25,13.25,0,0,0-3-2.53c-1.11-.65-2.28-1.41-3.42-2a25.75,25.75,0,0,0-3.11-1.46,39.37,39.37,0,0,0-27.23-2.13,52,52,0,0,0-11.25,4.26c-7.37,3.68-14.4,7.94-21.84,11.62a25.4,25.4,0,0,1-17.81,1.15c-7.44-2.28-15.74-9.84-22.77-4C33,58.12,21.85,57.06,14.92,36.09,14.8,35.74,14.55,35.77,14.56,36.17Z"/><path class="cls-5" d="M161.32,33.8c-14-.67-30.57,5.85-37.4,7.47-5.39,1.27-9.6,2.37-12.47,1.87-5-.87-5.22-4-8.54-6.46a4.37,4.37,0,0,0-1.59-.88c-2.28-1-5.82.35-7.36.18l-.28,0c-1.77-.86-2.24-2.49-4.12-3.1-2-.65-4.53-.08-6.75.74a5.24,5.24,0,0,1-3.21.4,8,8,0,0,1-1-.54,18.17,18.17,0,0,1-4.18-4.31c-.4-.53-1.34-2.13-3.07-2.2A3.1,3.1,0,0,0,68.66,28a1.61,1.61,0,0,1-1.13.52c-.85-.07-1.57-.43-2.18.32s-.24,1.95-.31,2.73a5.18,5.18,0,0,1-2.53,3.93c-1.35.92-2.45.57-4.38,1.72-1.1.66-.52,3.36-3.22,2.43-5.34-1.62-10.58-2.55-15.19-1.59-8.86,1.85-16.25,7.46-25.31,8.62-4.41.57-8.3-.05-13.53-2.41C.27,44-.18,44,.07,44.23a20.08,20.08,0,0,0,16.26,5.16c9.29-1.23,17.13-9.13,26.38-9.68,6.35-.59,8.89.75,13.76,2,0,0,1,.29,1.35-.3s.44-1.07.84-1.31c1.94-1.16,3-.77,4.34-1.69a5.7,5.7,0,0,0,2.54-4c.13-.77-.09-2.22.31-2.74.59-.77,1.33-.39,2.18-.31a1.64,1.64,0,0,0,1.14-.53,3.3,3.3,0,0,1,2.67-1.1c1.8,0,2.69,1.68,3.08,2.22a18.52,18.52,0,0,0,4.2,4.32,6.51,6.51,0,0,0,1,.54,5.13,5.13,0,0,0,3.22-.4c2.23-.82,4.75-1.32,6.69-.76,1.78.51,2.83,2.58,4.23,3.13l.28.05c1.54.16,5.09-1.15,7.38-.19a4.52,4.52,0,0,1,1.6.89c2.44,1.83,3.69,3.44,6.14,4.52.22,0,.48.2.71.26,5.32,1.42,10,.13,15.33-1,8-1.69,24.14-8.3,35.75-8.24,8.31,0,12.23,3,13,5.56C174.13,37.3,170.55,34.25,161.32,33.8Z"/><path class="cls-6" d="M132.83,44.36c-7.72-2-13.23-6.63-18.23-11.44-6.63-6.39-13.76-12.65-23-14.68a41.59,41.59,0,0,0-15.65-.34A59,59,0,0,0,57.05,25c-1,.55-1.95,1.11-2.92,1.67C47.35,30.62,41,34.65,32.91,34.48c-9.19-.2-14-12.93-23.07-10.74-.1,0,0,.2.41.24,4,.41,5,1.91,7.7,4.4,3.4,3.12,6.83,5.76,12,7.11,9.78,2.56,18.38-1.13,26.22-6.09,2.34-1.48,13.4-7.42,19.36-9a34.23,34.23,0,0,1,16.82-.55c8.61,2,14.51,8.87,20.73,14.65,2.49,2.3,5,4.55,7.36,6.39,8.11,6.45,15.25,3.55,18.09,6.62-.77-1.59-2.57-2.34-5.71-3.1"/></g></g></g></svg>