<svg xmlns="http://www.w3.org/2000/svg" viewBox="0 0 180.58 59.6"><defs><style>.cls-1{fill:#e00515;}.cls-2{fill:#040000;}</style></defs><title>HKTB_LOGO</title><g id="圖層_2" data-name="圖層 2"><g id="AW"><path class="cls-1" d="M7.16,54.37a31.59,31.59,0,0,1,10.16-2.12c7.46-.16,14,3.4,20.52,3.4a27.63,27.63,0,0,0,9.38-2,19.55,19.55,0,0,1-14.52,6c-5.55-.08-13.39-2.65-19.45-1.49A18.37,18.37,0,0,1,20.47,56C17.9,53.87,11.68,53.54,7.16,54.37Zm39.3-44L18.37,28.59l-.67,6.69,36.86-9.53ZM15.28,40.62l-.38-3.26L0,35.91l1,4.71Zm-.55-4.78-.35-2.91L2.69,29,.18,34.43Zm40.05-8.6L17.54,36.87l-.38,3.75H52.4ZM28.1,50.43c-2.9,0-5.19-1.49-5.23-3.2l-7-1.14-.46-4H1.29L2,45.53h10.5l4.52,6c8.5-.62,14.31,3.36,20.11,2.4l2.32-4.31,3.15-.17,1.13-3.19L33.7,47A5.57,5.57,0,0,1,28.1,50.43ZM17,42.11l-.34,3.42H51.53l.61-3.42ZM14.2,31.29l-.29-2.4L9.81,23l-6.1,4.84Zm31.18-22L28.89,0,19.68,15.51,18.56,26.68Z"/><path class="cls-2" d="M71.34,35H77V33.71H70.18V32.55c2.42-.14,4.19-.31,5.13-.46l.25-.05-.14-1.28-.29,0a47.69,47.69,0,0,1-5.18.44c-2.22.1-4.28.12-6,.06H63.6l.11,1.31h.12l5.07,0v1.11H62.32V35h5.32a16.1,16.1,0,0,1-5.28,2.65l-.32.1.6,1.16.21-.06a17.27,17.27,0,0,0,6.05-3.23v2.87h1.28V35.73a20.16,20.16,0,0,0,6.18,3.06l.2.05.68-1.14-.35-.1A18,18,0,0,1,71.34,35Z"/><path class="cls-2" d="M74.84,38.58H64.47a.36.36,0,0,0-.38.36v6a.38.38,0,0,0,.38.39H74.84a.38.38,0,0,0,.38-.39v-6A.35.35,0,0,0,74.84,38.58Zm-.91,4V44H65.38V42.53Zm0-2.67v1.39H65.38V39.86Z"/><path class="cls-2" d="M81.35,37.36l.23.18.78-1-.19-.17a10.5,10.5,0,0,0-2-1.49L80,34.74l-.74,1.07.27.14A12.23,12.23,0,0,1,81.35,37.36Z"/><path class="cls-2" d="M81.84,33.86l.22.2.79-1-.18-.17a11.54,11.54,0,0,0-2.12-1.6l-.21-.14-.74,1.06.25.16A11.44,11.44,0,0,1,81.84,33.86Z"/><path class="cls-2" d="M91.32,42.22a.46.46,0,0,0,.47-.48V39.41a13.11,13.11,0,0,0,1.59,1.41l.16.13,1-.82-.28-.22a12.93,12.93,0,0,1-3.06-3.18h3.22V35.45H91V33.68H94V32.39H91v-1.7H89.75v1.7H86.93V30.62H85.65v1.77H83.18v1.29h2.47v1.77H82.5v1.28h3a12,12,0,0,1-3,3.61l-.26.22,1,.84.08-.08,1.25-1.22V44a1.29,1.29,0,0,0,.29,1,1.39,1.39,0,0,0,1,.38H92.4a1.33,1.33,0,0,0,1-.53,4.41,4.41,0,0,0,.49-2.42v-.25L92.59,42v.32c0,1.25-.1,1.55-.17,1.63s-.08.12-.3.12h-6L85.94,44l-.06-.31V42.22Zm-.81-2.87v1.58H85.88V39.35Zm-.77-2.62.91,1.34H86.19c.18-.32.48-.81.67-1.12l.12-.22Zm-2.81-1.28V33.68h2.82v1.77Z"/><path class="cls-2" d="M82.35,38.84,81,38.72V39a11.91,11.91,0,0,1-1.68,5.68l-.17.3,1.23.4.13-.19a14.27,14.27,0,0,0,1.79-6.09Z"/><path class="cls-2" d="M108.72,40.22a15.6,15.6,0,0,0,2.52-1.68l.21-.16-.74-1.07-.24.19A16.38,16.38,0,0,1,108.3,39a12.54,12.54,0,0,1-.37-2.66H108l2.63-.67.35-.1-.69-1.21-.21.08a31.34,31.34,0,0,1-5.84,1.11l-.35.15-.06.33v8l-1.6.4.29,1.25.27-.06a22.11,22.11,0,0,0,5-1.64l.25-.12-.53-1.15-.11,0c-.08,0-1.65.63-2.24.87V36.7l.72-.09.82-.09a11.92,11.92,0,0,0,2,6.25,14,14,0,0,0,2.08,2.49l.16.16L112,44.7l-.23-.26A12.57,12.57,0,0,1,108.72,40.22Z"/><path class="cls-2" d="M102.24,35.15l1,.81.17-.18A7.3,7.3,0,0,0,105,33.56h6.75v-1.3h-6.28c.09-.4.28-1.21.28-1.21l0-.14-1.29-.19,0,.26a9,9,0,0,1-.66,2.23,8.11,8.11,0,0,1-1.31,1.71Z"/><path class="cls-2" d="M101.94,35.57H99.55c0-.27,0-.77,0-.79V34h3.61V32.7h-2.67V30.62H99.22V32.7H96.57V34h1.71v.78a30.13,30.13,0,0,1-1.51,10l-.11.31,1.3.23.07-.22a24.35,24.35,0,0,0,1.16-4.94s0-.15,0-.36c.07-.71.21-2.29.26-2.91h1.66a34,34,0,0,1-.6,7.09l0,.05a2.45,2.45,0,0,1-.46,0l-.86,0-.3,0v1.26l.24.06a7.21,7.21,0,0,0,1,.07,2.74,2.74,0,0,0,1-.17c.33-.14.71-.61,1-3,.14-1.13.22-3.16.26-6.2A.43.43,0,0,0,101.94,35.57Z"/><path class="cls-2" d="M117.07,33.38l.24.18.68-1.09-.2-.16A11.37,11.37,0,0,0,115.64,31l-.24-.1L114.77,32l.28.12A12.6,12.6,0,0,1,117.07,33.38Z"/><path class="cls-2" d="M116.84,36.64l.24.14.66-1.09-.21-.16a12.26,12.26,0,0,0-2.27-1.29l-.23-.12-.63,1.14.28.13A12.1,12.1,0,0,1,116.84,36.64Z"/><path class="cls-2" d="M123,44a13.54,13.54,0,0,1-3.78-.25,2.61,2.61,0,0,1-1.13-.7,1.64,1.64,0,0,1-.45-1V38.28a.43.43,0,0,0-.46-.46h-2.83v1.29h2v3a1.91,1.91,0,0,1-.44,1.27,5.37,5.37,0,0,1-1.63,1l-.3.11.63,1.12.22-.06a5.3,5.3,0,0,0,1.54-.9,3.74,3.74,0,0,0,.74-.93,3.12,3.12,0,0,0,1.13,1.13,6.66,6.66,0,0,0,3,.61l7.34-.08.31-1.37h-.35C126.28,44,124.41,44,123,44Z"/><path class="cls-2" d="M125.56,30.89l0-.15-1.3-.11,0,.26a7.63,7.63,0,0,1-.45,1.84c-.07.14-.14.27-.22.4v-.86h-2V30.5h-1.29v1.77h-2.15v1.29h1.47v1.22A15.67,15.67,0,0,1,118,42l-.16.31,1.28.31.1-.18a10.79,10.79,0,0,0,.88-2.37,15.42,15.42,0,0,0,.56-2.67s.07-.78.11-1.16h1.12a27,27,0,0,1-.65,5.65l0,0a5.12,5.12,0,0,1-1.12-.27l-.3-.08-.22,1.24.23.11a3.17,3.17,0,0,0,2,.22.83.83,0,0,0,.5-.48c.42-.86.72-3.23.89-7.26,0-.2-.12-.42-.48-.45h-1.88V33.56h2.47a4.44,4.44,0,0,1-.46.59l-.21.23,1.08.77.16-.19a1.63,1.63,0,0,0,.17-.2v.67h2.57L125.23,37l-.07.18v0a.47.47,0,0,0,.18.34c0,.08.12.26.35.67h-2.43v1.29h2.91a5.27,5.27,0,0,1,.18,1.22,1.48,1.48,0,0,1-.21.88.82.82,0,0,1-.64.29h-.17a2.06,2.06,0,0,1-.88-.42l-.33-.25-.33,1.39.15.1a2.91,2.91,0,0,0,1.63.56,2.45,2.45,0,0,0,.71-.11,1.94,1.94,0,0,0,.92-.68,3,3,0,0,0,.44-1.72,7.48,7.48,0,0,0-.12-1.25h1.73V38.19h-2.13l-.42-.87,0,0v0l2.14-2.36-.72-.72-3.58,0a9.23,9.23,0,0,0,.43-.83h4.32V32h-3.91C125.42,31.64,125.56,30.89,125.56,30.89Z"/><path class="cls-2" d="M144,34.25l1.2-1.3.11-.12-.24-.15-.77-.68-.09.09-1.35,1.48-.71-.5,1.37-1.42.11-.11-.24-.16-.74-.68-.2.2s-1,1-1.28,1.33l-1.13-1.13-.11-.1-.75,1.08.16.16A19.64,19.64,0,0,0,143,35.09H139.6l-.15.12-.13.24v1.2a1.09,1.09,0,0,1-.38.92L138,38V35.78a.44.44,0,0,0-.46-.44h-1.85a6.91,6.91,0,0,0,3-3.27l.08-.17-.62-.57-4,0h-.28v1.28h3a6.85,6.85,0,0,1-1.59,1.53l-2-1.62-.1-.08-.83,1,.11.09,1.61,1.29,0,0a12.7,12.7,0,0,1-2.41.63l-.4.07.7,1.19.1,0,1-.22v.19h3.75v1.22h-3.22a.53.53,0,0,0-.51.47c0,.05-.32,2.05-.48,3.11l0,.11,1.25.35v-.15s0-.13,0-.23h2.81a7.34,7.34,0,0,1-.38,2.39.73.73,0,0,1-.49.23,9.76,9.76,0,0,1-2.35-.22l-.37-.09.11,1.34.21,0a11.13,11.13,0,0,0,2,.23,2.35,2.35,0,0,0,1.64-.46c.53-.45.81-1.85.87-4.29V40.5l-.1-.16-.32-.13-3.41,0c.05-.32.15-.91.19-1.08h2.52v.58H138V38.38l.5.86.24-.09a2.91,2.91,0,0,0,1.61-1.34l.21-.93v-.51h1.76V38a.94.94,0,0,0,.3.68l.67.28h1.4l.64-.25,0,0c.13-.11.27-.33.41-1.57l0-.26-1.23-.22-.1.93a.41.41,0,0,0,0,.1l-.73,0-.08,0a.21.21,0,0,1,0-.06V35.51a.13.13,0,0,0,0,0,23.06,23.06,0,0,0,2.13,1l.19.08.81-1.07-.35-.13A21.24,21.24,0,0,1,144,34.25Z"/><path class="cls-2" d="M143,43.29a8.26,8.26,0,0,0,2.2-3.12l.09-.18-.62-.57-6.07,0h-.28v1.29h1.42L139,41l.13.26a8,8,0,0,0,1.58,2,17.89,17.89,0,0,1-2.85,1.07l-.36.08.65,1.15h.18a9.48,9.48,0,0,0,3.5-1.45,10.65,10.65,0,0,0,3.92,1.23H146l.4-1.24-.33,0A11.47,11.47,0,0,1,143,43.29Zm.12-1.77-1.24,1.1a6.79,6.79,0,0,1-1.58-1.93v0h3.33A3.81,3.81,0,0,1,143.11,41.52Z"/><path class="cls-2" d="M160.31,37.68h3.11V36.39h-3.11V35.13h2.48a.54.54,0,0,0,.57-.58V31.84a.52.52,0,0,0-.57-.55H150.65a.51.51,0,0,0-.54.52v7.13a10.56,10.56,0,0,1-1.27,5.37l-.15.25,1.18.59L150,45a6.36,6.36,0,0,0,.89-2.17,12.59,12.59,0,0,0,.44-2.61h2v4l-1.74.17h-.13l.08,1.28.28,0a26.81,26.81,0,0,0,5.66-.92l.27-.07-.33-1.23-.12,0-2.68.57V40.17h1.48a9.21,9.21,0,0,0,7,5.28l.11,0,.22,0,.55-1.18-.33-.07a13.6,13.6,0,0,1-3.4-1.27,17.76,17.76,0,0,0,2.48-1.35l.2-.15-.63-1.12-.24.18a19.54,19.54,0,0,1-3.06,1.57,6.9,6.9,0,0,1-1.48-2h6.47V38.88h-3.74Zm-6.09,0v1.2H151.4V35.13h2.82v1.26H151.7v1.29Zm7.85-5.11v1.27H151.4V32.57Zm-3,5.11v1.2h-3.51v-1.2Zm0-2.55v1.26h-3.51V35.13Z"/><path class="cls-2" d="M177.66,43V39a.36.36,0,0,0-.37-.37H169.9a.36.36,0,0,0-.37.37v4a.36.36,0,0,0,.37.38h7.39A.37.37,0,0,0,177.66,43Zm-6.85-.91v-2.2h5.57v2.2Z"/><path class="cls-2" d="M180.54,36.57l-.21-.23h0l-.24-.06H168.58V35.13h11.13a.54.54,0,0,0,.57-.58V31.84a.52.52,0,0,0-.57-.55H167.83a.51.51,0,0,0-.54.52v6.82a14.19,14.19,0,0,1-1.1,5.9l-.11.25,1.2.55.13-.23a8.72,8.72,0,0,0,.73-2.35,17.11,17.11,0,0,0,.44-3.86V37.56h10.75c0,.4,0,1.83-.13,4.54h0c0,.14-.09.44-.19,1.06a1.72,1.72,0,0,1-.39.75,1.27,1.27,0,0,1-.81.18,9.69,9.69,0,0,1-2.06-.31l-.37-.08.12,1.43.2,0a10.12,10.12,0,0,0,2.1.27,2.77,2.77,0,0,0,1.56-.37c.77-.53,1.16-1.9,1.17-4.21l0-3.94Zm-12-2.73V32.57H179v1.27Z"/></g></g></svg>