<svg xmlns="http://www.w3.org/2000/svg" viewBox="0 0 550.7 375.37"><defs><style>.cls-1{fill:red;}</style></defs><title>replay</title><g id="圖層_2" data-name="圖層 2"><g id="圖層_1-2" data-name="圖層 1"><path class="cls-1" d="M427.35,312.05V294.71c8.47-1.33,16.94-2.07,25.11-4,46.7-11.23,83-55.42,80-109.59-2.61-47.53-41-90.07-89.14-97.19a130.08,130.08,0,0,0-18.93-1.21q-110-.12-220,0H197.9L253.12,134l-12.29,13.12L161.69,73.59,240.84,0,253.1,13.15,197.77,64.64h7.06c74.15,0,148.31-.15,222.46.06a123.2,123.2,0,0,1,117.19,85.16c24.27,73.47-25.15,151.47-102,161C437.55,311.44,432.61,311.64,427.35,312.05Z"/><path class="cls-1" d="M297.6,362.24,353,310.74h-6.83c-74.33,0-148.65.18-223-.06C66.58,310.49,18.1,272.39,3.9,217.62-14.62,146.2,35,73.32,108,64.57c4.92-.59,9.88-.83,15.25-1.27V80.44c-9.78,1.76-19.42,2.75-28.63,5.28-44.26,12.14-79.44,55.17-76.4,108.84,2.62,46.31,38.87,87.57,86,96.25a105.62,105.62,0,0,0,18.85,1.84q112.47.19,225,.09c1.12,0,2.24-.1,4.57-.2-18.69-17.39-36.63-34.1-55-51.2l12.28-13.12L389,301.79,309.9,375.37Z"/></g></g></svg>